# xmcd CD database file
#
# Track frame offsets:
#	150
#	2845
#	58315
#	86622
#	119377
#	147507
#	194697
#	225677
#	288360
#
# Disc length: 4186 seconds
#
# Revision: 0
# Processed by: cddbd v1.5.2PL0 Copyright (c) Steve Scherf et al.
# Submitted via: CDex 1.70beta2
#
DISCID=86105809
DTITLE=Thich Nhat Hanh - The Present Moment - Disc 2
DYEAR=2003
DGENRE=New Age
TTITLE0=Introduction
TTITLE1=Arriving at every moment
TTITLE2=Touching nirvana in the here and now
TTITLE3=A mantra of perfect understanding
TTITLE4=Contemplating the body within the body
TTITLE5=Transforming feelings with mindfulness
TTITLE6=Being mindful of our perceptions
TTITLE7=using minfulness to ease suffering
TTITLE8=Reconciling the war within
EXTD=YEAR: 2003
EXTT0=
EXTT1=
EXTT2=
EXTT3=
EXTT4=
EXTT5=
EXTT6=
EXTT7=
EXTT8=
PLAYORDER=
